<mxfile host="app.diagrams.net" agent="Mozilla/5.0 (X11; Linux x86_64; rv:141.0) Gecko/20100101 Firefox/141.0" version="27.1.6">
  <diagram name="PÃ¡gina-1" id="Y6PyzrkWtq0SgteCBDmz">
    <mxGraphModel dx="1699" dy="442" grid="1" gridSize="10" guides="1" tooltips="1" connect="1" arrows="1" fold="1" page="1" pageScale="1" pageWidth="827" pageHeight="1169" math="0" shadow="0">
      <root>
        <mxCell id="0" />
        <mxCell id="1" parent="0" />
        <mxCell id="XKQGZfaB93Q64py4YFXP-1" value="" style="shape=image;verticalLabelPosition=bottom;labelBackgroundColor=default;verticalAlign=top;aspect=fixed;imageAspect=0;image=https://cdn-icons-png.flaticon.com/512/11471/11471482.png;" vertex="1" parent="1">
          <mxGeometry x="180" y="150" width="50" height="50" as="geometry" />
        </mxCell>
        <mxCell id="XKQGZfaB93Q64py4YFXP-2" value="" style="shape=image;verticalLabelPosition=bottom;labelBackgroundColor=default;verticalAlign=top;aspect=fixed;imageAspect=0;image=https://upload.wikimedia.org/wikipedia/commons/thumb/a/ab/Python_Windows_source_code_icon_2016.svg/1200px-Python_Windows_source_code_icon_2016.svg.png;" vertex="1" parent="1">
          <mxGeometry x="260" y="50" width="60" height="60" as="geometry" />
        </mxCell>
        <mxCell id="XKQGZfaB93Q64py4YFXP-4" value="" style="shape=flexArrow;endArrow=classic;html=1;rounded=0;fillColor=#1ba1e2;strokeColor=#006EAF;" edge="1" parent="1">
          <mxGeometry width="50" height="50" relative="1" as="geometry">
            <mxPoint x="250" y="174.5" as="sourcePoint" />
            <mxPoint x="350" y="175" as="targetPoint" />
            <Array as="points">
              <mxPoint x="290" y="174.5" />
            </Array>
          </mxGeometry>
        </mxCell>
        <mxCell id="XKQGZfaB93Q64py4YFXP-5" value="" style="shape=cross;whiteSpace=wrap;html=1;" vertex="1" parent="1">
          <mxGeometry x="270" y="120" width="40" height="40" as="geometry" />
        </mxCell>
        <mxCell id="XKQGZfaB93Q64py4YFXP-8" value="" style="group" vertex="1" connectable="0" parent="1">
          <mxGeometry x="270" y="250" width="120" height="125" as="geometry" />
        </mxCell>
        <mxCell id="XKQGZfaB93Q64py4YFXP-6" value="" style="shape=image;verticalLabelPosition=bottom;labelBackgroundColor=default;verticalAlign=top;aspect=fixed;imageAspect=0;image=https://quintagroup.com/cms/python/images/jinja2.png/@@images/919c2c3d-5b4e-4650-943a-b0df263f851b.png;" vertex="1" parent="XKQGZfaB93Q64py4YFXP-8">
          <mxGeometry x="24" y="25" width="32" height="32" as="geometry" />
        </mxCell>
        <mxCell id="XKQGZfaB93Q64py4YFXP-7" value="" style="whiteSpace=wrap;html=1;shape=mxgraph.basic.document;fillColor=none;" vertex="1" parent="XKQGZfaB93Q64py4YFXP-8">
          <mxGeometry x="20" y="20" width="40" height="50" as="geometry" />
        </mxCell>
        <mxCell id="XKQGZfaB93Q64py4YFXP-28" value="" style="shape=cross;whiteSpace=wrap;html=1;" vertex="1" parent="XKQGZfaB93Q64py4YFXP-8">
          <mxGeometry x="20" y="85" width="40" height="40" as="geometry" />
        </mxCell>
        <mxCell id="XKQGZfaB93Q64py4YFXP-69" value="Plantilla Jinja" style="text;html=1;align=center;verticalAlign=middle;whiteSpace=wrap;rounded=0;" vertex="1" parent="XKQGZfaB93Q64py4YFXP-8">
          <mxGeometry x="10" y="-10" width="60" height="30" as="geometry" />
        </mxCell>
        <mxCell id="XKQGZfaB93Q64py4YFXP-9" value="" style="shape=image;verticalLabelPosition=bottom;labelBackgroundColor=default;verticalAlign=top;aspect=fixed;imageAspect=0;image=https://upload.wikimedia.org/wikipedia/commons/thumb/a/ab/Python_Windows_source_code_icon_2016.svg/1200px-Python_Windows_source_code_icon_2016.svg.png;" vertex="1" parent="1">
          <mxGeometry x="460" y="230" width="60" height="60" as="geometry" />
        </mxCell>
        <mxCell id="XKQGZfaB93Q64py4YFXP-11" value="" style="shape=cross;whiteSpace=wrap;html=1;" vertex="1" parent="1">
          <mxGeometry x="410" y="240" width="40" height="40" as="geometry" />
        </mxCell>
        <mxCell id="XKQGZfaB93Q64py4YFXP-12" value="" style="shape=image;verticalLabelPosition=bottom;labelBackgroundColor=default;verticalAlign=top;aspect=fixed;imageAspect=0;image=https://cdn-icons-png.flaticon.com/512/5139/5139787.png;" vertex="1" parent="1">
          <mxGeometry x="360" y="140" width="70" height="70" as="geometry" />
        </mxCell>
        <mxCell id="XKQGZfaB93Q64py4YFXP-14" value="" style="shape=image;verticalLabelPosition=bottom;labelBackgroundColor=default;verticalAlign=top;aspect=fixed;imageAspect=0;image=https://cdn-icons-png.flaticon.com/512/6863/6863849.png;" vertex="1" parent="1">
          <mxGeometry x="360" y="340" width="70" height="70" as="geometry" />
        </mxCell>
        <mxCell id="XKQGZfaB93Q64py4YFXP-15" value="" style="shape=flexArrow;endArrow=classic;html=1;rounded=0;fillColor=#1ba1e2;strokeColor=#006EAF;" edge="1" parent="1">
          <mxGeometry width="50" height="50" relative="1" as="geometry">
            <mxPoint x="394.5" y="220" as="sourcePoint" />
            <mxPoint x="394.5" y="320" as="targetPoint" />
            <Array as="points">
              <mxPoint x="394.5" y="250" />
            </Array>
          </mxGeometry>
        </mxCell>
        <mxCell id="XKQGZfaB93Q64py4YFXP-19" value="" style="group" vertex="1" connectable="0" parent="1">
          <mxGeometry x="190" y="360" width="44.99000000000001" height="50" as="geometry" />
        </mxCell>
        <mxCell id="XKQGZfaB93Q64py4YFXP-17" value="" style="whiteSpace=wrap;html=1;shape=mxgraph.basic.document;fillColor=none;" vertex="1" parent="XKQGZfaB93Q64py4YFXP-19">
          <mxGeometry width="40" height="50" as="geometry" />
        </mxCell>
        <mxCell id="XKQGZfaB93Q64py4YFXP-18" value="" style="shape=image;verticalLabelPosition=bottom;labelBackgroundColor=default;verticalAlign=top;aspect=fixed;imageAspect=0;image=https://upload.wikimedia.org/wikipedia/commons/1/19/C_Logo.png;" vertex="1" parent="XKQGZfaB93Q64py4YFXP-19">
          <mxGeometry x="6.659999999999968" y="10" width="26.67" height="30" as="geometry" />
        </mxCell>
        <mxCell id="XKQGZfaB93Q64py4YFXP-26" value="" style="shape=image;verticalLabelPosition=bottom;labelBackgroundColor=default;verticalAlign=top;aspect=fixed;imageAspect=0;image=https://upload.wikimedia.org/wikipedia/commons/thumb/a/ab/Python_Windows_source_code_icon_2016.svg/1200px-Python_Windows_source_code_icon_2016.svg.png;" vertex="1" parent="1">
          <mxGeometry x="80" y="50" width="60" height="60" as="geometry" />
        </mxCell>
        <mxCell id="XKQGZfaB93Q64py4YFXP-27" value="" style="shape=flexArrow;endArrow=none;html=1;rounded=0;fillColor=#1ba1e2;strokeColor=#006EAF;startFill=0;startArrow=block;" edge="1" parent="1">
          <mxGeometry width="50" height="50" relative="1" as="geometry">
            <mxPoint x="250" y="384.5" as="sourcePoint" />
            <mxPoint x="350" y="385" as="targetPoint" />
            <Array as="points">
              <mxPoint x="290" y="384.5" />
            </Array>
          </mxGeometry>
        </mxCell>
        <mxCell id="XKQGZfaB93Q64py4YFXP-29" value="" style="shape=flexArrow;endArrow=classic;html=1;rounded=0;fillColor=#1ba1e2;strokeColor=#006EAF;" edge="1" parent="1">
          <mxGeometry width="50" height="50" relative="1" as="geometry">
            <mxPoint x="70" y="174.5" as="sourcePoint" />
            <mxPoint x="170" y="175" as="targetPoint" />
            <Array as="points">
              <mxPoint x="110" y="174.5" />
            </Array>
          </mxGeometry>
        </mxCell>
        <mxCell id="XKQGZfaB93Q64py4YFXP-30" value="" style="shape=cross;whiteSpace=wrap;html=1;" vertex="1" parent="1">
          <mxGeometry x="90" y="120" width="40" height="40" as="geometry" />
        </mxCell>
        <mxCell id="XKQGZfaB93Q64py4YFXP-39" value="" style="group" vertex="1" connectable="0" parent="1">
          <mxGeometry x="-10" y="130" width="70" height="70.00000000000003" as="geometry" />
        </mxCell>
        <mxCell id="XKQGZfaB93Q64py4YFXP-35" value="" style="shape=image;verticalLabelPosition=bottom;labelBackgroundColor=default;verticalAlign=top;aspect=fixed;imageAspect=0;image=https://ih1.redbubble.net/image.2098253031.7740/st,small,845x845-pad,1000x1000,f8f8f8.u2.jpg;clipPath=inset(12% 13.67% 13.33% 13.67%);imageBorder=default;" vertex="1" parent="XKQGZfaB93Q64py4YFXP-39">
          <mxGeometry x="10" y="8.350000000000023" width="60" height="61.65" as="geometry" />
        </mxCell>
        <mxCell id="XKQGZfaB93Q64py4YFXP-38" value="" style="shape=image;verticalLabelPosition=bottom;labelBackgroundColor=default;verticalAlign=top;aspect=fixed;imageAspect=0;image=https://ih1.redbubble.net/image.2098253031.7740/st,small,845x845-pad,1000x1000,f8f8f8.u2.jpg;clipPath=inset(12% 13.67% 13.33% 13.67%);imageBorder=default;" vertex="1" parent="XKQGZfaB93Q64py4YFXP-39">
          <mxGeometry width="60" height="61.65" as="geometry" />
        </mxCell>
        <mxCell id="XKQGZfaB93Q64py4YFXP-40" value="" style="shape=cross;whiteSpace=wrap;html=1;" vertex="1" parent="1">
          <mxGeometry x="118" y="335" width="40" height="40" as="geometry" />
        </mxCell>
        <mxCell id="XKQGZfaB93Q64py4YFXP-41" value="" style="shape=flexArrow;endArrow=none;html=1;rounded=0;fillColor=#1ba1e2;strokeColor=#006EAF;startFill=0;startArrow=block;" edge="1" parent="1">
          <mxGeometry width="50" height="50" relative="1" as="geometry">
            <mxPoint x="78" y="384.5" as="sourcePoint" />
            <mxPoint x="178" y="385" as="targetPoint" />
            <Array as="points">
              <mxPoint x="118" y="384.5" />
            </Array>
          </mxGeometry>
        </mxCell>
        <mxCell id="XKQGZfaB93Q64py4YFXP-45" value="" style="shape=image;verticalLabelPosition=bottom;labelBackgroundColor=default;verticalAlign=top;aspect=fixed;imageAspect=0;image=data:image/png,iVBORw0KGgoAAAANSUhEUgAAAOEAAADhCAMAAAAJbSJIAAAAdVBMVEXr69r///93d3fm5uZvb3BtbW3W1sjy8uBsbG7CwsJ0dHWUlI/v796amppvb3Hl5eXMzL/k5NS1tayDg4Hf39B+fn2jo5zAwLWYmJOrq6O6urCRkY3Q0MPFxbnOzsGLi4inp6BkZGfz8/P5+ealpaXIyMhhYWWKQNTMAAAKMklEQVR4nO2da3uCOgyAGeuE0/UwQcT73M7t///EI6ib0iQt0JTiY75uQl/TNm1uRi+PLtHYA2CXJ+H0BSX864/R5NUP4ce3GE2cIqKEr2/xWCKdIoZI6BaRJhSpd3GOSBKKMvEtf58RY3eINOFMRZ4luRC6QwySULpEDJFQ/iMdrsUQCcW/r8IdYpCEf7w4RAyU8OXDGWKohGd77AIxWMKXD0eI4RKe1+JwoxEw4XktDkYMmdCNFoMmdIIYNqELxMAJHSCGTjh8uwme8OJs6I8YPuHZ9PdHnADhwLU4BcJha3EShIO0OA3CIYgTIRyAOBXC/oiTIey93UyHsK/pnxBhT9M/JcLLWnzrhjgpwsta7IY4LcI+O+rECHsgTo2wO+LkCDsjTo+wq+mfIGFH0z9Fwm6mf5KEnUx/kIT/Gof9Glsjhkgoj38a5XjOSvnTzBgiYSzNcsnYsNBikIT2MklCCwX+6nGChOr4bitHOUnCSNlKMhNhECooe83BNxGpQAjV/FvPP/zvoQi3Qt8Bs9kjEX5JnVAcHKzvUAiTHUAoiwciVAvATsvqgQgjQIWng6eD3TQUwhI8hS0fR4dqnkGEIn8cQshY1A9+HELIWLgxF4EQJu8goQtzEQrhEgJ0Yi78EdL/AqrQbC5s3uuLUH1Sgy3BjeYkNGHyafFiT4RJla7xbxwxFqcnk2OP1t9fxjOBJ8KkyGIZz5HhqKSAZ2ks9gn66GR+eqTYmhD9EKpVc2SB1aiiwxGbpHF2XJ2u89Ajo/X5mXPTu30Qqv1lEupqVEm+iTNEg81HhKwARTYKPKu5NLzcA6Ga/a6ytLpVo1Kz9RuBd4WMi/IOUuXVzzlWxvTRzgOhyu+GG/9sqkodjpT67iB3N7P1V4HN3xaG75dfh8t7irMaT9OzIKenxphV+4bxtALvK3PlO/kFsxOqYxujXo2n6Sns8S6fy5ZFqe4V2IigbAY7oVoD+2RaHdOufGfIdFcBN8mUsBnchMkXaAhkLz78kwK3GcyESdEtgtJbcJvBS6gOngAJm8FKqGa+AAmbwUmo0BsDCyJiMzgJc21bZxXxBX/PfISq8KnCk6TgUmSdpcvONr0WcRN/7yLZyrcOT1eKDkqUQqTL4/prUxRFtT7KVHTElDvY6rPupUllOUiZyd12fxfXLQ+bhehysMO8x8wW35JvPY+S9j1XqaTc2h/ukDnKbvHn5nkqlkWOuSpOkJvYaqrLd+xkyn1qWxt0IOIV6KT4HWC0tWHEIxzcJ++cJJRyS/M1Q0xWRkaBzVF+QrUiBpdWuZVPW0Ubes/B9lEfhHD4+jysmHQS3z+lXFBqlISrhv+Ojx1Oxc7GJ/8zTrXBT/HoPuqHMIEDZ+mmY9AlmWHHXGqOevHTLKCBZavOIXqVax4f8xz14acB74hi3ydsBvp8qH3UDyF0cusHWM94IIIj6fnOP0uBb90YayAQIS2SH2G3hwf9Wxfd1+AvYqUj0tOU3ZuoB+jFZkgeUKKvRbkYcy/NtX1GHofF5nUfepxRy5qZEPBk0Hu7heTtJ8ZyPZ5XXzeG6eAUGfWpzYu0HIvwNnJo8XVbSrJpTwzKYDATasbQRaYa5OIi/pmXsK1C0fU0Cj92356nY90P1UGbTg74IsB1QBgMXl9b+25oOGDZS9meHClqMFgJ87YKMxersBbNT4nvYKwe4bYxdLGRXkTLKRaYweCMW2gJh32vFIAACwBxSbIQ1tVGqtzr5xlXfNAmFq8+yzxJan85J2Hz/HJeVEepu+SdFBdcRXdTiuz0xuN6cyK9FH5xEB6K9UKmAo6qOCmBuQriw6tjV5nIljXp+RbqlnD2TQXG4PheT1FYOuMv6XfintAQ1nZZpWgRuks5CKnMBLlzWoeZG3+UgYNQv+/eErrcaE4jN8bd/BO6OrJdCEE/LDdhRM0cJ7V2N4SIf5iZkNKhcEwIF6EwEypyljomRINarIRkCMzxOhxllpL7m4RzlnoTjrLT0IRrt4QGPiZC6oV0mK+7jGLxFVyCdiGkc+q7ijnx0TshXcTUVSxSdVgIoZrz3zcSnunuhPTdgo+Qeq3b+6EpF4mJkLRRTg0ivSDGInS5mVpkWPsndOXxbt5kkYDMQ1gnvqKUwqKo1VIS45mN6W5x9rMtM9gX5fAOTN5EWQkbX2mU71eb9VLoSQquCE22QnJ5om45T6Cz9ouJ8qSOhMhOenEmxotdVbB4E1uipbS5ClzoB5oaTMoGrHEIJ1we4ZbYx0+6ibbPyGPt01eAU5+ZUB9J5UKJ6lOLLc/Rqnbu2rX2bHLi9wYOh2NlKug7ggslqq2W4TFaLgawqzvouKSHncbLpwEsM52EZiN61AkvtvBAqF9yhrpNE/1ESppZ9uzLvXawyQbN02bAbRkz+xLY9+RyCKCet2e4d/IT6iUl5LIxCeBFyMhjhIeuEcCQeufQQhdQwxc2Tr1FVvREhG6FhuO8h3oL6BqQ9kFUOejoMsSW+dch3E0vMzd40oeKFM3Q9odfh8hVNSMaY4GSrNBrfUrOIW57CFc91ZNrYWh/dP+cCChD+HkU1SOTm5DIzpCZRXnlRYCmNHePIs7zo1bJZseZ1WpMyh3Sz+0qhDudO5Od9mrKtMqN/daSsjJXreM1Dsx3fGOcVoqvEm86V7u0ZhZ8lMlgzvM2TK5mbNn7XHOuXNUXWVfkoyaDV4fm6MmZUVaHXN06kRpnZLnddeiqgJkMr1nQBKTIFlVxmJW1HzDKZ/PtZhd3ahqBXllYddipe0vtzBXirWmon2Vd+37EqMlgJERKnPkELtxkJNRqItgFNBl8hMochnZOCJkMPkKb+Jdr+QYClIw6/PTcJgo5u3FWlMz9alFKeBic9tCi/45DwCV8G+M9tXnUolwgnWC4Y0++LIZAu7RyR2aQ1pCdu7NeBDvpCDwHgj1uASFKudr0gRTxFm42RLnu+H1tBy0PNHs/XSSi1aJDF+EzX3E6l8+W+vaVHcbsshslq1ZfY3lui6GSfZdWwg1f/TG1ad0YESvhj7DlBqwVeH13043NCvLK1zzvXo2YlfBIeIsoWxOqnqzmS7yQxV2f8+hGjaiV8EkYJdtUU+DPAE6TlV6Qt/q7PvBHjbiV8Ep4QZRwc6hmshKi8dWfib4aNabmTDlfv/6wFZACf/6M963D2vU0arQJ8Hj7BY8iJToLEeWSaP13rUbKSvgmjBS5IeAZv0SeGP1I74QGQfeawXnFgRAmaBnD4PSbQAhRp87wYqlQCDcY4eAKhlAIMXNhaBk4IULMXAxvFhIIIep7HJ6PGgohZi6GF6GEQojUhDmoWQyGEDYXDiprgyGEzYWDcrdgCFcC+mn74cYiHMLZDvpt+52LJ4dBiP7e/fAHh0LIJk/CJ+GTcHx5Ej4Jn4Tjy5PwSfgkHF+ehE/CK2HA4oTwMAtYDg4IYxG0xA4Ig5cnIUX48f02Afn+6E/48vE6ATEDEoSPIk/C6cuTcPry+IT/AxzmPqjDnkhuAAAAAElFTkSuQmCC;" vertex="1" parent="1">
          <mxGeometry x="30" y="360" width="50" height="50" as="geometry" />
        </mxCell>
        <mxCell id="XKQGZfaB93Q64py4YFXP-46" value="" style="shape=image;verticalLabelPosition=bottom;labelBackgroundColor=default;verticalAlign=top;aspect=fixed;imageAspect=0;image=data:image/png,iVBORw0KGgoAAAANSUhEUgAAAOEAAADhCAMAAAAJbSJIAAAAdVBMVEXr69r///93d3fm5uZvb3BtbW3W1sjy8uBsbG7CwsJ0dHWUlI/v796amppvb3Hl5eXMzL/k5NS1tayDg4Hf39B+fn2jo5zAwLWYmJOrq6O6urCRkY3Q0MPFxbnOzsGLi4inp6BkZGfz8/P5+ealpaXIyMhhYWWKQNTMAAAKMklEQVR4nO2da3uCOgyAGeuE0/UwQcT73M7t///EI6ib0iQt0JTiY75uQl/TNm1uRi+PLtHYA2CXJ+H0BSX864/R5NUP4ce3GE2cIqKEr2/xWCKdIoZI6BaRJhSpd3GOSBKKMvEtf58RY3eINOFMRZ4luRC6QwySULpEDJFQ/iMdrsUQCcW/r8IdYpCEf7w4RAyU8OXDGWKohGd77AIxWMKXD0eI4RKe1+JwoxEw4XktDkYMmdCNFoMmdIIYNqELxMAJHSCGTjh8uwme8OJs6I8YPuHZ9PdHnADhwLU4BcJha3EShIO0OA3CIYgTIRyAOBXC/oiTIey93UyHsK/pnxBhT9M/JcLLWnzrhjgpwsta7IY4LcI+O+rECHsgTo2wO+LkCDsjTo+wq+mfIGFH0z9Fwm6mf5KEnUx/kIT/Gof9Glsjhkgoj38a5XjOSvnTzBgiYSzNcsnYsNBikIT2MklCCwX+6nGChOr4bitHOUnCSNlKMhNhECooe83BNxGpQAjV/FvPP/zvoQi3Qt8Bs9kjEX5JnVAcHKzvUAiTHUAoiwciVAvATsvqgQgjQIWng6eD3TQUwhI8hS0fR4dqnkGEIn8cQshY1A9+HELIWLgxF4EQJu8goQtzEQrhEgJ0Yi78EdL/AqrQbC5s3uuLUH1Sgy3BjeYkNGHyafFiT4RJla7xbxwxFqcnk2OP1t9fxjOBJ8KkyGIZz5HhqKSAZ2ks9gn66GR+eqTYmhD9EKpVc2SB1aiiwxGbpHF2XJ2u89Ajo/X5mXPTu30Qqv1lEupqVEm+iTNEg81HhKwARTYKPKu5NLzcA6Ga/a6ytLpVo1Kz9RuBd4WMi/IOUuXVzzlWxvTRzgOhyu+GG/9sqkodjpT67iB3N7P1V4HN3xaG75dfh8t7irMaT9OzIKenxphV+4bxtALvK3PlO/kFsxOqYxujXo2n6Sns8S6fy5ZFqe4V2IigbAY7oVoD+2RaHdOufGfIdFcBN8mUsBnchMkXaAhkLz78kwK3GcyESdEtgtJbcJvBS6gOngAJm8FKqGa+AAmbwUmo0BsDCyJiMzgJc21bZxXxBX/PfISq8KnCk6TgUmSdpcvONr0WcRN/7yLZyrcOT1eKDkqUQqTL4/prUxRFtT7KVHTElDvY6rPupUllOUiZyd12fxfXLQ+bhehysMO8x8wW35JvPY+S9j1XqaTc2h/ukDnKbvHn5nkqlkWOuSpOkJvYaqrLd+xkyn1qWxt0IOIV6KT4HWC0tWHEIxzcJ++cJJRyS/M1Q0xWRkaBzVF+QrUiBpdWuZVPW0Ubes/B9lEfhHD4+jysmHQS3z+lXFBqlISrhv+Ojx1Oxc7GJ/8zTrXBT/HoPuqHMIEDZ+mmY9AlmWHHXGqOevHTLKCBZavOIXqVax4f8xz14acB74hi3ydsBvp8qH3UDyF0cusHWM94IIIj6fnOP0uBb90YayAQIS2SH2G3hwf9Wxfd1+AvYqUj0tOU3ZuoB+jFZkgeUKKvRbkYcy/NtX1GHofF5nUfepxRy5qZEPBk0Hu7heTtJ8ZyPZ5XXzeG6eAUGfWpzYu0HIvwNnJo8XVbSrJpTwzKYDATasbQRaYa5OIi/pmXsK1C0fU0Cj92356nY90P1UGbTg74IsB1QBgMXl9b+25oOGDZS9meHClqMFgJ87YKMxersBbNT4nvYKwe4bYxdLGRXkTLKRaYweCMW2gJh32vFIAACwBxSbIQ1tVGqtzr5xlXfNAmFq8+yzxJan85J2Hz/HJeVEepu+SdFBdcRXdTiuz0xuN6cyK9FH5xEB6K9UKmAo6qOCmBuQriw6tjV5nIljXp+RbqlnD2TQXG4PheT1FYOuMv6XfintAQ1nZZpWgRuks5CKnMBLlzWoeZG3+UgYNQv+/eErrcaE4jN8bd/BO6OrJdCEE/LDdhRM0cJ7V2N4SIf5iZkNKhcEwIF6EwEypyljomRINarIRkCMzxOhxllpL7m4RzlnoTjrLT0IRrt4QGPiZC6oV0mK+7jGLxFVyCdiGkc+q7ijnx0TshXcTUVSxSdVgIoZrz3zcSnunuhPTdgo+Qeq3b+6EpF4mJkLRRTg0ivSDGInS5mVpkWPsndOXxbt5kkYDMQ1gnvqKUwqKo1VIS45mN6W5x9rMtM9gX5fAOTN5EWQkbX2mU71eb9VLoSQquCE22QnJ5om45T6Cz9ouJ8qSOhMhOenEmxotdVbB4E1uipbS5ClzoB5oaTMoGrHEIJ1we4ZbYx0+6ibbPyGPt01eAU5+ZUB9J5UKJ6lOLLc/Rqnbu2rX2bHLi9wYOh2NlKug7ggslqq2W4TFaLgawqzvouKSHncbLpwEsM52EZiN61AkvtvBAqF9yhrpNE/1ESppZ9uzLvXawyQbN02bAbRkz+xLY9+RyCKCet2e4d/IT6iUl5LIxCeBFyMhjhIeuEcCQeufQQhdQwxc2Tr1FVvREhG6FhuO8h3oL6BqQ9kFUOejoMsSW+dch3E0vMzd40oeKFM3Q9odfh8hVNSMaY4GSrNBrfUrOIW57CFc91ZNrYWh/dP+cCChD+HkU1SOTm5DIzpCZRXnlRYCmNHePIs7zo1bJZseZ1WpMyh3Sz+0qhDudO5Od9mrKtMqN/daSsjJXreM1Dsx3fGOcVoqvEm86V7u0ZhZ8lMlgzvM2TK5mbNn7XHOuXNUXWVfkoyaDV4fm6MmZUVaHXN06kRpnZLnddeiqgJkMr1nQBKTIFlVxmJW1HzDKZ/PtZhd3ahqBXllYddipe0vtzBXirWmon2Vd+37EqMlgJERKnPkELtxkJNRqItgFNBl8hMochnZOCJkMPkKb+Jdr+QYClIw6/PTcJgo5u3FWlMz9alFKeBic9tCi/45DwCV8G+M9tXnUolwgnWC4Y0++LIZAu7RyR2aQ1pCdu7NeBDvpCDwHgj1uASFKudr0gRTxFm42RLnu+H1tBy0PNHs/XSSi1aJDF+EzX3E6l8+W+vaVHcbsshslq1ZfY3lui6GSfZdWwg1f/TG1ad0YESvhj7DlBqwVeH13043NCvLK1zzvXo2YlfBIeIsoWxOqnqzmS7yQxV2f8+hGjaiV8EkYJdtUU+DPAE6TlV6Qt/q7PvBHjbiV8Ep4QZRwc6hmshKi8dWfib4aNabmTDlfv/6wFZACf/6M963D2vU0arQJ8Hj7BY8iJToLEeWSaP13rUbKSvgmjBS5IeAZv0SeGP1I74QGQfeawXnFgRAmaBnD4PSbQAhRp87wYqlQCDcY4eAKhlAIMXNhaBk4IULMXAxvFhIIIep7HJ6PGgohZi6GF6GEQojUhDmoWQyGEDYXDiprgyGEzYWDcrdgCFcC+mn74cYiHMLZDvpt+52LJ4dBiP7e/fAHh0LIJk/CJ+GTcHx5Ej4Jn4Tjy5PwSfgkHF+ehE/CK2HA4oTwMAtYDg4IYxG0xA4Ig5cnIUX48f02Afn+6E/48vE6ATEDEoSPIk/C6cuTcPry+IT/AxzmPqjDnkhuAAAAAElFTkSuQmCC;" vertex="1" parent="1">
          <mxGeometry x="-50" y="360" width="50" height="50" as="geometry" />
        </mxCell>
        <mxCell id="XKQGZfaB93Q64py4YFXP-59" value="" style="group" vertex="1" connectable="0" parent="1">
          <mxGeometry x="120" y="270" width="40" height="50.5" as="geometry" />
        </mxCell>
        <mxCell id="XKQGZfaB93Q64py4YFXP-43" value="" style="whiteSpace=wrap;html=1;shape=mxgraph.basic.document;fillColor=none;" vertex="1" parent="XKQGZfaB93Q64py4YFXP-59">
          <mxGeometry width="40" height="50" as="geometry" />
        </mxCell>
        <mxCell id="XKQGZfaB93Q64py4YFXP-58" value="" style="shape=image;verticalLabelPosition=bottom;labelBackgroundColor=default;verticalAlign=top;aspect=fixed;imageAspect=0;image=https://miro.medium.com/v2/resize:fit:1200/1*ueILZt1yidwNzMA614_LnA.png;clipPath=inset(0% 30.67% 4.14% 30.33%);" vertex="1" parent="XKQGZfaB93Q64py4YFXP-59">
          <mxGeometry x="3.090000000000032" y="7" width="33.82" height="43.5" as="geometry" />
        </mxCell>
        <mxCell id="XKQGZfaB93Q64py4YFXP-60" value="" style="shape=cross;whiteSpace=wrap;html=1;" vertex="1" parent="1">
          <mxGeometry x="-5" y="367" width="40" height="40" as="geometry" />
        </mxCell>
        <mxCell id="XKQGZfaB93Q64py4YFXP-61" value="Capturas Pcap" style="text;html=1;align=center;verticalAlign=middle;whiteSpace=wrap;rounded=0;" vertex="1" parent="1">
          <mxGeometry x="-5" y="90" width="60" height="30" as="geometry" />
        </mxCell>
        <mxCell id="XKQGZfaB93Q64py4YFXP-62" value="DecisionTree/pcap2csv.py" style="text;html=1;align=center;verticalAlign=middle;whiteSpace=wrap;rounded=0;" vertex="1" parent="1">
          <mxGeometry x="55" y="20" width="110" height="30" as="geometry" />
        </mxCell>
        <mxCell id="XKQGZfaB93Q64py4YFXP-63" value="dataset.csv" style="text;html=1;align=center;verticalAlign=middle;whiteSpace=wrap;rounded=0;" vertex="1" parent="1">
          <mxGeometry x="175" y="120" width="60" height="30" as="geometry" />
        </mxCell>
        <mxCell id="XKQGZfaB93Q64py4YFXP-64" value="DecisionTree/arbolrw.py" style="text;html=1;align=center;verticalAlign=middle;whiteSpace=wrap;rounded=0;" vertex="1" parent="1">
          <mxGeometry x="235" y="20" width="110" height="30" as="geometry" />
        </mxCell>
        <mxCell id="XKQGZfaB93Q64py4YFXP-65" value="DecisionTree/arbolrw.py" style="text;html=1;align=center;verticalAlign=middle;whiteSpace=wrap;rounded=0;" vertex="1" parent="1">
          <mxGeometry x="435" y="200" width="110" height="30" as="geometry" />
        </mxCell>
        <mxCell id="XKQGZfaB93Q64py4YFXP-66" value="Makefile" style="text;html=1;align=center;verticalAlign=middle;whiteSpace=wrap;rounded=0;" vertex="1" parent="1">
          <mxGeometry x="110" y="240" width="60" height="30" as="geometry" />
        </mxCell>
        <mxCell id="XKQGZfaB93Q64py4YFXP-67" value="Ãrbol de DecisiÃ³n" style="text;html=1;align=center;verticalAlign=middle;whiteSpace=wrap;rounded=0;" vertex="1" parent="1">
          <mxGeometry x="365" y="120" width="60" height="30" as="geometry" />
        </mxCell>
        <mxCell id="XKQGZfaB93Q64py4YFXP-68" value="if-else C" style="text;html=1;align=center;verticalAlign=middle;whiteSpace=wrap;rounded=0;" vertex="1" parent="1">
          <mxGeometry x="370" y="320" width="60" height="30" as="geometry" />
        </mxCell>
        <mxCell id="XKQGZfaB93Q64py4YFXP-70" value="Bytecode" style="text;html=1;align=center;verticalAlign=middle;whiteSpace=wrap;rounded=0;" vertex="1" parent="1">
          <mxGeometry x="25" y="330" width="60" height="30" as="geometry" />
        </mxCell>
        <mxCell id="XKQGZfaB93Q64py4YFXP-71" value="Ejecutable" style="text;html=1;align=center;verticalAlign=middle;whiteSpace=wrap;rounded=0;" vertex="1" parent="1">
          <mxGeometry x="-55" y="330" width="60" height="30" as="geometry" />
        </mxCell>
        <mxCell id="XKQGZfaB93Q64py4YFXP-72" value="CÃ³digo C del programa XDP" style="text;html=1;align=center;verticalAlign=middle;whiteSpace=wrap;rounded=0;" vertex="1" parent="1">
          <mxGeometry x="170" y="330" width="87.51" height="30" as="geometry" />
        </mxCell>
      </root>
    </mxGraphModel>
  </diagram>
</mxfile>
